<svg id="Layer_1" data-name="Layer 1" xmlns="http://www.w3.org/2000/svg" xmlns:xlink="http://www.w3.org/1999/xlink" viewBox="0 0 384.04 76.03"><defs><style>.cls-1{fill:url(#linear-gradient);}.cls-2{fill:url(#Pink);}.cls-3{fill:url(#New_Gradient_Swatch);}.cls-4{fill:url(#New_Gradient_Swatch-2);}.cls-5{fill:url(#New_Gradient_Swatch-3);}.cls-6{fill:url(#New_Gradient_Swatch-4);}.cls-7{fill:url(#Pink-2);}.cls-8{fill:url(#Pink-3);}.cls-9{fill:url(#Pink-4);}.cls-10{fill:url(#Pink-5);}</style><linearGradient id="linear-gradient" x1="36.88" y1="15.61" x2="57.13" y2="35.86" gradientUnits="userSpaceOnUse"><stop offset="0" stop-color="#22c3e1"/><stop offset="1" stop-color="#016eee"/></linearGradient><linearGradient id="Pink" x1="82.19" y1="60.91" x2="64.11" y2="42.84" gradientUnits="userSpaceOnUse"><stop offset="0" stop-color="#dd7a89"/><stop offset="1" stop-color="#c4388a"/></linearGradient><linearGradient id="New_Gradient_Swatch" x1="111.68" y1="28.43" x2="205.73" y2="79.15" xlink:href="#linear-gradient"/><linearGradient id="New_Gradient_Swatch-2" x1="119.6" y1="13.75" x2="213.64" y2="64.47" xlink:href="#linear-gradient"/><linearGradient id="New_Gradient_Swatch-3" x1="126.03" y1="1.82" x2="220.08" y2="52.54" xlink:href="#linear-gradient"/><linearGradient id="New_Gradient_Swatch-4" x1="132.46" y1="-10.1" x2="226.51" y2="40.63" xlink:href="#linear-gradient"/><linearGradient id="Pink-2" x1="241.64" y1="28.67" x2="342.03" y2="85.73" xlink:href="#Pink"/><linearGradient id="Pink-3" x1="248.59" y1="16.44" x2="348.98" y2="73.5" xlink:href="#Pink"/><linearGradient id="Pink-4" x1="254.18" y1="6.6" x2="354.57" y2="63.67" xlink:href="#Pink"/><linearGradient id="Pink-5" x1="262.74" y1="-8.45" x2="363.13" y2="48.61" xlink:href="#Pink"/></defs><path class="cls-1" d="M35.93,38a23.35,23.35,0,0,1,36.7-19.18l6.72-6.72a32.76,32.76,0,0,0-46,46l6.72-6.72A23.31,23.31,0,0,1,35.93,38Z"/><path class="cls-2" d="M85.19,18l-6.72,6.72A23.36,23.36,0,0,1,46,57.2l-6.72,6.72a32.76,32.76,0,0,0,46-46Z"/><path class="cls-3" d="M134,19c10.39,0,14.55,5.66,14.55,12.78S143.81,44.2,134.71,44.2H122.92V57h-3.17V19Zm1,22.39c7,0,10.4-4.46,10.4-9.61s-3.59-10-10.71-10H122.92V41.39Z"/><path class="cls-4" d="M157.78,43.52V57h-3.17V19h16.63c7.07,0,12.06,5.09,12.06,12.31,0,6.34-3.64,11.07-10.4,12.11L182.72,57h-3.89l-9.62-13.51Zm0-2.91h13c4.42,0,9.36-2.7,9.36-9.3,0-3.32-1.72-9.5-9.36-9.5h-13Z"/><path class="cls-5" d="M194.72,57h-3.17V19h3.17Z"/><path class="cls-6" d="M202.41,38c0-10.92,8.06-19.85,19.23-19.85S241,27.1,241,38s-8.11,19.85-19.38,19.85S202.41,49,202.41,38Zm3.17,0c0,9.19,7.22,17,16.06,17,9,0,16.21-7.85,16.21-17S230.63,21,221.64,21C212.8,21,205.58,28.87,205.58,38Z"/><path class="cls-7" d="M251.2,43.52V57H248V19h16.63c7.07,0,12,5.09,12,12.31,0,6.34-3.63,11.07-10.39,12.11L276.14,57h-3.89l-9.62-13.51Zm0-2.91h13c4.42,0,9.35-2.7,9.35-9.3,0-3.32-1.71-9.5-9.35-9.5h-13Z"/><path class="cls-8" d="M288.14,57H285V19h3.17Z"/><path class="cls-9" d="M298,50.85a22.32,22.32,0,0,0,12.83,4.21c6.81,0,10.55-3.12,10.55-7.9,0-5.51-5.56-6.75-11.59-7.95-4.26-.83-13.87-1.87-13.87-10s7.48-10.86,13.4-10.86A21.58,21.58,0,0,1,321.5,22l-1.56,2.5a20.11,20.11,0,0,0-11-3.33c-3.69,0-9.93,2.29-9.93,7.9,0,5.87,8.42,6.65,13.62,7.64,4.42.83,11.85,2.54,11.85,10.54,0,7.12-5.51,10.66-13.51,10.66A23.79,23.79,0,0,1,296.4,53.4Z"/><path class="cls-10" d="M334.64,21.81V37h20.17v2.8H334.64V54.23h22.87V57h-26V19h26v2.81Z"/></svg>